<?xml version="1.0" encoding="UTF-8"?>
<svg xmlns="http://www.w3.org/2000/svg" xmlns:xlink="http://www.w3.org/1999/xlink" width="16pt" height="16pt" viewBox="0 0 16 16" version="1.1">
<g id="surface1">
<path style=" stroke:none;fill-rule:evenodd;fill:rgb(28.627451%,34.509804%,40.392157%);fill-opacity:1;" d="M 0 8.042969 C 0 12.023438 2.886719 15.328125 6.667969 16 L 6.667969 10.222656 L 4.667969 10.222656 L 4.667969 8 L 6.667969 8 L 6.667969 6.222656 C 6.667969 4.222656 7.957031 3.113281 9.777344 3.113281 C 10.355469 3.113281 10.976562 3.199219 11.554688 3.289062 L 11.554688 5.332031 L 10.535156 5.332031 C 9.554688 5.332031 9.332031 5.820312 9.332031 6.445312 L 9.332031 8 L 11.464844 8 L 11.113281 10.222656 L 9.332031 10.222656 L 9.332031 16 C 13.113281 15.328125 16 12.023438 16 8.042969 C 16 3.621094 12.398438 0 8 0 C 3.601562 0 0 3.621094 0 8.042969 Z M 0 8.042969 "/>
</g>
</svg>
