<?xml version="1.0" encoding="UTF-8"?>
<svg xmlns="http://www.w3.org/2000/svg" xmlns:xlink="http://www.w3.org/1999/xlink" width="16pt" height="16pt" viewBox="0 0 16 16" version="1.1">
<g id="surface1">
<path style=" stroke:none;fill-rule:nonzero;fill:rgb(28.627451%,34.509804%,40.392157%);fill-opacity:1;" d="M 8 0 C 3.585938 0 0 3.585938 0 8 C 0 12.414062 3.585938 16 8 16 L 12 16 L 12 14.398438 L 8 14.398438 C 4.527344 14.398438 1.601562 11.472656 1.601562 8 C 1.601562 4.527344 4.527344 1.601562 8 1.601562 C 11.472656 1.601562 14.398438 4.527344 14.398438 8 L 14.398438 9.144531 C 14.398438 9.777344 13.832031 10.398438 13.199219 10.398438 C 12.566406 10.398438 12 9.777344 12 9.144531 L 12 8 C 12 5.792969 10.207031 4 8 4 C 5.792969 4 4 5.792969 4 8 C 4 10.207031 5.792969 12 8 12 C 9.105469 12 10.113281 11.550781 10.832031 10.824219 C 11.351562 11.535156 12.246094 12 13.199219 12 C 14.777344 12 16 10.71875 16 9.144531 L 16 8 C 16 3.585938 12.414062 0 8 0 Z M 8 10.398438 C 6.671875 10.398438 5.601562 9.328125 5.601562 8 C 5.601562 6.671875 6.671875 5.601562 8 5.601562 C 9.328125 5.601562 10.398438 6.671875 10.398438 8 C 10.398438 9.328125 9.328125 10.398438 8 10.398438 Z M 8 10.398438 "/>
</g>
</svg>
