<?xml version="1.0" encoding="UTF-8"?>
<svg xmlns="http://www.w3.org/2000/svg" xmlns:xlink="http://www.w3.org/1999/xlink" width="16pt" height="16pt" viewBox="0 0 16 16" version="1.1">
<g id="surface1">
<path style=" stroke:none;fill-rule:nonzero;fill:rgb(28.627451%,34.509804%,40.392157%);fill-opacity:1;" d="M 16 8 C 16 10.121094 15.15625 12.15625 13.65625 13.65625 C 12.15625 15.15625 10.121094 16 8 16 C 5.878906 16 3.84375 15.15625 2.34375 13.65625 C 0.84375 12.15625 0 10.121094 0 8 C 0 5.878906 0.84375 3.84375 2.34375 2.34375 C 3.84375 0.84375 5.878906 0 8 0 C 10.121094 0 12.15625 0.84375 13.65625 2.34375 C 15.15625 3.84375 16 5.878906 16 8 Z M 8.285156 5.90625 C 7.507812 6.230469 5.953125 6.898438 3.621094 7.914062 C 3.242188 8.066406 3.042969 8.214844 3.027344 8.359375 C 2.996094 8.601562 3.300781 8.695312 3.714844 8.828125 L 3.890625 8.882812 C 4.300781 9.015625 4.847656 9.171875 5.132812 9.175781 C 5.394531 9.183594 5.683594 9.078125 6.003906 8.855469 C 8.179688 7.386719 9.304688 6.644531 9.375 6.628906 C 9.425781 6.613281 9.496094 6.601562 9.542969 6.644531 C 9.589844 6.683594 9.585938 6.761719 9.578125 6.785156 C 9.550781 6.914062 8.351562 8.023438 7.734375 8.601562 C 7.539062 8.78125 7.402344 8.90625 7.375 8.9375 C 7.3125 9 7.25 9.0625 7.1875 9.121094 C 6.808594 9.488281 6.523438 9.761719 7.203125 10.210938 C 7.527344 10.425781 7.789062 10.605469 8.050781 10.78125 C 8.335938 10.976562 8.621094 11.167969 8.988281 11.410156 C 9.082031 11.472656 9.171875 11.535156 9.257812 11.597656 C 9.589844 11.835938 9.886719 12.046875 10.253906 12.011719 C 10.46875 11.992188 10.691406 11.792969 10.800781 11.191406 C 11.066406 9.773438 11.589844 6.707031 11.707031 5.441406 C 11.714844 5.335938 11.710938 5.230469 11.695312 5.125 C 11.6875 5.042969 11.644531 4.964844 11.582031 4.910156 C 11.488281 4.847656 11.382812 4.8125 11.269531 4.816406 C 10.972656 4.820312 10.507812 4.980469 8.285156 5.90625 Z M 8.285156 5.90625 "/>
</g>
</svg>
