<?xml version="1.0" encoding="UTF-8"?>
<svg xmlns="http://www.w3.org/2000/svg" xmlns:xlink="http://www.w3.org/1999/xlink" width="16pt" height="16pt" viewBox="0 0 16 16" version="1.1">
<g id="surface1">
<path style=" stroke:none;fill-rule:nonzero;fill:rgb(28.627451%,34.509804%,40.392157%);fill-opacity:1;" d="M 8 5.332031 C 7.292969 5.332031 6.613281 5.613281 6.113281 6.113281 C 5.613281 6.613281 5.332031 7.292969 5.332031 8 C 5.332031 8.707031 5.613281 9.386719 6.113281 9.886719 C 6.613281 10.386719 7.292969 10.667969 8 10.667969 C 8.707031 10.667969 9.386719 10.386719 9.886719 9.886719 C 10.386719 9.386719 10.667969 8.707031 10.667969 8 C 10.667969 7.292969 10.386719 6.613281 9.886719 6.113281 C 9.386719 5.613281 8.707031 5.332031 8 5.332031 Z M 8 5.332031 "/>
<path style=" stroke:none;fill-rule:evenodd;fill:rgb(28.627451%,34.509804%,40.392157%);fill-opacity:1;" d="M 4.800781 0 C 3.527344 0 2.304688 0.503906 1.40625 1.40625 C 0.503906 2.304688 0 3.527344 0 4.800781 L 0 11.199219 C 0 12.472656 0.503906 13.695312 1.40625 14.59375 C 2.304688 15.496094 3.527344 16 4.800781 16 L 11.199219 16 C 12.472656 16 13.695312 15.496094 14.59375 14.59375 C 15.496094 13.695312 16 12.472656 16 11.199219 L 16 4.800781 C 16 3.527344 15.496094 2.304688 14.59375 1.40625 C 13.695312 0.503906 12.472656 0 11.199219 0 Z M 4.265625 8 C 4.265625 7.011719 4.660156 6.058594 5.359375 5.359375 C 6.058594 4.660156 7.011719 4.265625 8 4.265625 C 8.988281 4.265625 9.941406 4.660156 10.640625 5.359375 C 11.339844 6.058594 11.734375 7.011719 11.734375 8 C 11.734375 8.988281 11.339844 9.941406 10.640625 10.640625 C 9.941406 11.339844 8.988281 11.734375 8 11.734375 C 7.011719 11.734375 6.058594 11.339844 5.359375 10.640625 C 4.660156 9.941406 4.265625 8.988281 4.265625 8 Z M 11.734375 4.265625 L 12.800781 4.265625 L 12.800781 3.199219 L 11.734375 3.199219 Z M 11.734375 4.265625 "/>
</g>
</svg>
