<svg
        width="333"
        height="68"
        viewBox="0 0 333 68"
        fill="none"
        xmlns="http://www.w3.org/2000/svg"
      >
        <path
          d="M181.515 0.000777314C181.037 -0.00555791 180.552 0.0268186 180.06 0.0983832L147.337 4.65576C143.516 5.22851 140.447 8.1582 139.862 11.9797L137.37 28.5809C134.467 30.3711 132.719 33.7107 133.218 37.2068L135.796 54.2115C136.128 56.5748 138.374 58.2804 140.779 57.8768L141.364 62.1866C141.49 63.0719 141.882 63.853 142.447 64.4652H0V67.7201H166.107V64.4652V61.2101H332.214V57.9549H200.159C201.714 57.1152 202.657 55.3899 202.405 53.5604L201.74 49.3287C204.145 48.9251 205.807 46.7247 205.474 44.4461L202.983 27.3567C202.484 23.8609 199.827 21.094 196.591 20.2803L189.362 4.9812C187.907 1.92128 184.864 0.0399619 181.515 0.000777314ZM181.303 8.56178L187.116 20.8531L146.586 26.5496L148.579 13.2036L181.303 8.56178ZM188.698 51.1256L189.276 55.4354C189.415 56.4446 189.907 57.3104 190.611 57.9613H166.107H162.785V64.4715H152.639C153.955 63.5668 154.712 61.9846 154.479 60.318L153.815 56.0865L188.698 51.1256Z"
          fill="#495867"
        />
      </svg>